<?xml version="1.0" encoding="UTF-8" standalone="no"?>
<!DOCTYPE svg PUBLIC "-//W3C//DTD SVG 1.1//EN" "http://www.w3.org/Graphics/SVG/1.1/DTD/svg11.dtd">
<svg width="100%" height="100%" viewBox="0 0 1990 786" version="1.1" xmlns="http://www.w3.org/2000/svg" xmlns:xlink="http://www.w3.org/1999/xlink" xml:space="preserve" xmlns:serif="http://www.serif.com/" style="fill-rule:evenodd;clip-rule:evenodd;">
    <g transform="matrix(1,0,0,1,-269.201,-352.267)">
        <g>
            <g transform="matrix(1,0,0,1,545.605,116)">
                <g transform="matrix(1.1,0,0,0.959156,-134.776,29.7312)">
                    <path d="M1417.32,540.168C1417.32,502.788 1390.86,472.441 1358.27,472.441L1240.16,472.441C1207.56,472.441 1181.1,502.788 1181.1,540.168L1181.1,897.273C1181.1,934.653 1207.56,965 1240.16,965L1358.27,965C1390.86,965 1417.32,934.653 1417.32,897.273L1417.32,540.168Z" style="fill:rgb(105,105,105);fill-opacity:0.54;"/>
                </g>
                <g transform="matrix(-0.108461,-2.37894,2.37894,-0.108461,311.152,1643.09)">
                    <g transform="matrix(0.875827,-0.482624,0.482624,0.875827,-179.501,188.972)">
                        <path d="M256.95,454.743C258.453,454.085 260.17,453.579 261.643,453.256C264.439,452.647 267.682,453.476 270.225,454.662C271.583,455.299 272.9,456.194 274.206,456.938C275.57,457.715 276.907,458.552 278.098,459.583C279.482,460.777 280.206,461.974 281.229,463.476C282.106,464.766 282.821,466.726 282.992,468.288C283.693,466.047 283.743,463.78 283.268,461.498C282.781,459.158 281.808,456.861 280.769,454.785C280.024,453.298 278.972,451.967 277.799,450.792C276.679,449.672 275.607,448.497 274.206,447.719C273.189,447.152 272.129,446.653 271.081,446.149C268.816,445.065 266.376,444.331 263.871,444.108C259.555,443.723 255.253,444.73 252.971,448.615C250.726,452.44 250.852,456.969 253.001,460.899C252.017,459.1 254.168,456.222 255.629,455.398C256.041,455.164 256.486,454.946 256.95,454.743Z" style="fill:rgb(80,80,80);fill-rule:nonzero;stroke:black;stroke-width:0.63px;"/>
                        <path d="M278.953,455.994C277.978,458.34 276.503,460.515 274.477,462.069C272.623,463.488 270.672,464.507 268.326,464.866C266.356,465.167 264.17,465.47 262.174,465.33C259.289,465.133 256.148,464.098 253.974,462.137C252.258,460.588 251.985,458.122 251.622,455.977C251.351,454.367 251.317,452.946 251.618,451.34C251.828,450.209 252.281,449.365 252.897,448.46C252.477,449.632 252.209,450.121 252.81,451.374C253.598,453.02 255.54,454.053 257.179,454.787C259.598,455.868 262.453,456.059 265.065,455.925C267.204,455.818 269.47,455.319 271.339,454.252C272.555,453.557 273.744,452.898 274.719,451.861C275.877,450.632 276.747,449.093 277.399,447.512C278.134,445.724 278.378,443.82 278.855,441.958C279.17,440.729 279.493,439.483 279.637,438.214C279.679,437.839 279.589,436.714 279.953,436.526C280.134,436.431 280.659,441.065 280.734,441.445C281.064,443.093 281.179,444.775 281.111,446.453C280.979,449.721 280.208,452.976 278.953,455.994Z" style="fill:rgb(80,80,80);fill-rule:nonzero;stroke:black;stroke-width:0.63px;"/>
                        <path d="M284.089,487.051C284.853,488.485 285.131,490.162 286.039,491.491C285.982,488.271 286.383,484.603 285.143,481.555C284.495,479.955 284.344,478.24 283.848,476.58C283.214,474.467 281.764,472.488 280.356,470.822C279.813,470.178 279.297,469.51 278.71,468.911C278.16,468.348 277.536,468.047 276.936,467.587C275.154,466.222 272.927,465.407 270.735,464.994C269.102,464.684 267.616,465.043 265.986,465.145C261.194,465.448 256.262,467.523 255.212,472.642C254.971,473.816 255.131,475.055 255.143,476.242C255.161,478.092 255.242,479.826 256.208,481.479C254.548,477.57 263.388,475.059 265.72,474.783C266.618,474.677 267.512,474.593 268.409,474.495C270.178,474.304 271.805,474.44 273.474,475.084C275.295,475.784 277.313,476.472 278.785,477.791C280.736,479.54 281.796,481.909 282.741,484.287C283.113,485.231 283.605,486.138 284.089,487.051Z" style="fill:rgb(80,80,80);fill-rule:nonzero;stroke:black;stroke-width:0.63px;"/>
                        <path d="M265.55,486.615C262.663,486.415 259.524,485.38 257.35,483.42C255.632,481.871 255.36,479.407 254.998,477.261C254.727,475.649 254.693,474.231 254.992,472.622C255.202,471.491 255.656,470.649 256.271,469.742C255.851,470.914 255.584,471.406 256.183,472.659C256.972,474.305 258.915,475.339 260.554,476.07C262.071,476.747 263.913,477.216 265.585,477.203C267.21,477.193 268.927,476.584 270.381,475.887C271.133,475.525 271.843,475.118 272.521,474.632C274.019,473.56 275.39,471.988 276.624,470.629C277.266,469.922 277.918,469.187 278.467,468.401C279.781,466.52 280.929,464.276 281.358,462.003C281.637,460.521 282.392,458.411 281.752,456.942C282.449,458.54 282.965,460.218 283.305,461.929C283.619,463.51 283.534,464.812 283.376,466.411C283.279,467.39 283.174,468.389 282.96,469.352C282.723,470.421 282.454,471.486 282.174,472.543C281.523,475.011 279.993,477.057 278.575,479.13C277.093,481.297 275.327,482.902 273.203,484.439C272.111,485.23 270.928,485.88 269.641,486.292C268.293,486.72 266.958,486.71 265.55,486.615Z" style="fill:rgb(80,80,80);fill-rule:nonzero;stroke:black;stroke-width:0.63px;"/>
                        <path d="M274.25,488.082C273.079,487.673 271.857,487.396 270.642,487.198C270.012,487.094 269.381,486.964 268.746,486.928C267.996,486.884 267.271,486.843 266.525,486.791C262.873,486.537 258.77,486.59 256.831,490.266C256.002,491.837 256.147,493.539 256.233,495.265C256.335,497.279 256.45,500.117 257.961,501.636C259.047,500.829 259.896,499.537 261.178,498.887C262.863,498.032 264.766,497.399 266.655,497.173C267.552,497.068 268.447,496.985 269.343,496.888C271.112,496.697 272.74,496.833 274.411,497.477C276.231,498.176 278.248,498.865 279.72,500.183C281.116,501.433 282.192,503.04 283.029,504.705C283.471,505.58 283.919,506.516 284.228,507.442C284.5,508.257 284.552,509.212 284.897,509.982C285.059,509.857 285.195,509.639 285.313,509.392C285.824,508.332 285.834,507.261 285.886,506.107C285.923,505.31 285.875,504.432 285.748,503.643C285.501,502.086 285.234,500.484 284.781,498.971C284.147,496.859 282.698,494.877 281.29,493.213C280.746,492.57 280.232,491.901 279.644,491.303C279.095,490.737 278.471,490.439 277.869,489.979C276.775,489.14 275.543,488.531 274.25,488.082Z" style="fill:rgb(80,80,80);fill-rule:nonzero;stroke:black;stroke-width:0.63px;"/>
                        <path d="M285.769,491.856C285.638,494.157 284.359,496.039 283.1,497.878C279.779,502.729 273.337,504.783 267.711,505.237C266.159,505.363 264.822,505.243 263.3,505.037C262.74,504.962 262.176,504.903 261.643,504.699C260.201,504.153 258.761,503.307 257.906,501.984C256.955,500.515 256.598,498.795 256.289,497.131C256.044,495.809 256.228,494.496 256.174,493.164C256.152,492.599 256.154,492.021 256.238,491.459C256.26,491.313 256.79,490.081 256.814,490.141C257.023,490.634 256.882,491.134 257.036,491.645C257.187,492.142 257.443,492.651 257.828,493.008C259.099,494.185 260.438,494.978 262.127,495.364C267.752,496.65 273.839,495.011 278.547,491.803C281.065,490.087 283.061,487.55 284.156,484.719C284.699,483.315 284.941,481.905 284.964,480.403C285.692,483.13 286.096,485.647 285.915,488.512C285.846,489.63 285.833,490.744 285.769,491.856Z" style="fill:rgb(80,80,80);fill-rule:nonzero;stroke:black;stroke-width:0.63px;"/>
                        <path d="M256.818,517.294C256.86,516.038 257.068,514.771 257.656,514.056C258.316,513.257 259.423,513.117 260.363,512.988C261.765,512.793 263.036,512.834 264.387,513.308C265.347,513.643 266.255,514.039 267.257,514.274C267.808,514.405 268.341,514.519 268.544,515.124C268.986,516.451 267.956,517.31 267.157,518.178C264.994,520.537 262.619,520.525 259.841,521.638C259.232,521.883 258.694,522.324 258.201,522.778C257.984,522.979 258.035,523.478 257.705,523.496C256.999,523.534 256.981,520.567 256.927,520.007C256.858,519.298 256.786,518.299 256.818,517.294Z" style="fill:rgb(80,80,80);fill-rule:nonzero;stroke:black;stroke-width:0.63px;"/>
                        <path d="M285.851,504.62C286.056,506.942 286.012,509.294 285.539,511.584C284.915,514.615 284.113,517.938 282.341,520.529C281.471,521.801 280.602,523.027 279.464,524.082C278.031,525.41 276.409,526.121 274.531,526.625C273.851,526.809 273.161,526.975 272.467,527.092C271.636,527.232 270.791,527.29 269.948,527.287C269.237,527.287 268.563,527.207 267.86,527.155C264.712,526.918 261.135,526.292 258.582,524.281C256.987,523.025 256.937,520.803 256.84,518.982C256.776,517.769 256.88,516.294 257.182,515.124C257.682,513.188 258.843,515.103 259.901,515.528C262.111,516.421 264.463,517.431 266.856,517.651C267.996,517.757 269.251,518.028 270.393,517.859C271.298,517.725 272.221,517.786 273.101,517.529C274.021,517.262 274.865,516.803 275.731,516.408C276.436,516.089 277.148,515.701 277.783,515.257C278.72,514.603 279.526,513.779 280.214,512.87C281.78,510.806 282.845,508.371 283.501,505.872C284.056,503.763 284.497,501.725 284.763,499.562C284.982,499.755 285.109,500.134 285.188,500.42C285.325,500.912 285.427,501.411 285.508,501.913C285.654,502.806 285.771,503.711 285.851,504.62Z" style="fill:rgb(80,80,80);fill-rule:nonzero;stroke:black;stroke-width:0.63px;"/>
                    </g>
                    <g transform="matrix(-0.960927,0.276803,-0.323813,-1.12412,732.248,999.434)">
                        <path d="M281.564,571.444C281.469,572.239 281.528,572.954 281.586,573.645C281.638,574.254 281.686,574.83 281.614,575.397C281.406,577.042 280.914,578.652 280.459,580.011L279.551,582.567C278.748,584.756 277.918,587.02 277.51,589.422C276.194,597.179 283.007,601.219 289.821,602.41C295.376,603.384 300.801,602.436 304.336,599.88C306.943,597.996 308.514,595.343 309.003,591.998C309.19,590.714 309.211,589.318 309.233,587.839C309.277,584.881 309.322,581.822 310.774,579.943C311.181,579.417 311.083,578.661 310.558,578.254C310.031,577.849 309.277,577.946 308.869,578.473C306.93,580.986 306.876,584.609 306.828,587.805C306.807,589.202 306.787,590.521 306.622,591.652C306.231,594.329 304.988,596.443 302.928,597.933C299.907,600.116 295.163,600.903 290.237,600.042C287.484,599.56 278.598,597.399 279.882,589.826C280.254,587.64 281.009,585.578 281.809,583.395L282.742,580.775C283.233,579.303 283.768,577.549 284.003,575.7C284.107,574.878 284.047,574.149 283.986,573.442C283.936,572.844 283.888,572.282 283.955,571.734C284.035,571.076 283.566,570.475 282.906,570.395C282.246,570.315 281.646,570.786 281.564,571.444Z" style="fill:rgb(80,80,80);fill-rule:nonzero;stroke:black;stroke-width:0.63px;"/>
                    </g>
                    <g transform="matrix(0.858663,-0.512541,0.512541,0.858663,-267.483,170.459)">
                        <path d="M284.001,575.444C285.724,574.602 287.472,573.812 289.197,572.98C290.068,572.559 290.935,572.13 291.79,571.676C292.176,571.47 293.54,571.091 293.653,570.613C293.782,570.055 292.891,570.119 292.526,570.059C291.118,569.836 289.702,569.675 288.301,569.401C287.608,569.264 287.386,569.262 287.369,568.64C287.342,567.52 287.668,566.348 287.868,565.251C288.085,564.063 288.332,562.909 288.717,561.76C290.488,556.459 293.451,551.698 296.338,546.951C297.653,544.79 299.255,542.972 300.393,540.72C301.827,537.876 303.203,535.005 304.404,532.057C306.716,526.383 307.872,520.747 309.219,514.802C309.234,514.741 309.247,514.677 309.261,514.615C310.241,510.221 310.6,505.876 310.828,501.37C310.966,498.645 311.184,495.953 311.085,493.234C311.071,492.865 310.899,488.104 311.216,488.141C310.629,488.074 309.87,488.299 309.29,488.398C307.827,488.636 306.329,488.644 304.875,488.943C304.254,489.071 302.702,489.338 302.535,489.931C302.443,490.254 302.636,491.002 302.656,491.351C302.798,493.682 303.011,496.034 303.005,498.375C302.985,504.688 303.344,511.695 301.547,517.817C300.731,520.597 299.671,523.191 298.634,525.896C297.777,528.131 296.411,530.04 295.159,532.055C293.477,534.765 291.624,537.335 289.846,539.991C288.678,541.735 287.425,543.421 286.26,545.178C285.389,546.494 284.392,547.711 283.572,549.062C282.024,551.606 280.64,554.248 279.399,556.954C277.95,560.119 276.791,564.443 276.913,567.96C276.59,567.857 271.197,566.971 271.208,567.258C271.239,567.987 272.301,568.675 272.795,569.093C273.659,569.822 274.551,570.509 275.461,571.186C277.201,572.48 279.004,573.683 280.758,574.956C282.427,576.166 282.302,576.274 284.001,575.444Z" style="fill:rgb(80,80,80);fill-rule:nonzero;stroke:black;stroke-width:0.63px;"/>
                    </g>
                </g>
                <g id="DNA_-_The_Noun_Project" transform="matrix(3.42252,-2.37644,2.37644,3.42252,1423.28,526.215)">
                    <g transform="matrix(1,0,0,1,-50,-50)">
                        <g>
                            <g>
                                <path d="M51.174,72.076C54.27,72.076 57.221,71.097 59.903,69.951C67.864,66.549 73.457,58.47 73.457,49.279C73.457,40.367 68.189,32.54 60.612,28.972C60.375,28.861 60.144,28.726 59.903,28.623C57.347,27.537 54.167,27.111 51.402,26.984C46.974,26.782 42.686,25.974 39.298,22.874C38.374,22.028 37.517,21.031 36.808,19.999L65.526,19.999C63.464,22.999 60.784,24.625 57.721,25.771C57.934,25.818 58.148,26.008 58.361,26.065C59.119,26.26 59.869,26.581 60.604,26.895C61.273,27.18 61.917,27.54 62.551,27.881C69.073,23.985 73.456,16.886 73.456,9L69.892,9C69.892,9.471 69.871,9.939 69.833,10.403C69.825,10.488 69.812,10.572 69.803,10.658C69.765,11.044 69.723,11.429 69.654,11.83C69.349,13.652 68.749,16 67.914,17L34.438,17C33.182,15 32.457,11.848 32.457,9L28.893,9C28.893,17.732 34.268,25.328 41.973,28.831C42.133,28.903 42.285,28.986 42.447,29.054C44.478,29.923 46.665,30.369 48.951,30.535C54.074,30.907 58.724,31.911 62.827,35.185C63.884,36.029 64.857,36.972 65.738,37.999L36.499,37.999C38.58,34.999 41.344,33.077 44.529,31.866C43.555,31.614 42.625,31.189 41.744,30.812C41.144,30.555 40.561,30.212 39.991,29.916C33.362,33.78 28.891,40.927 28.891,49.138C28.891,57.707 33.757,65.144 40.869,68.87C41.161,68.731 41.446,68.577 41.744,68.451C42.949,67.934 44.263,67.569 45.649,67.15C41.985,66.021 38.812,64 36.49,61L65.924,61C62.497,65 57.172,68.034 51.174,68.034C48.078,68.034 45.127,69.013 42.445,70.158C34.484,73.561 28.892,81.195 28.892,91L32.456,91C32.456,87.766 33.233,84 34.588,82L67.743,82C69.113,84 69.891,87.747 69.891,91L73.455,91C73.455,81.963 68.699,74.691 61.722,70.942C61.352,71.123 60.985,71.307 60.603,71.47C59.229,72.058 57.907,72.753 56.62,73.099C60.041,74.128 63.042,75.999 65.325,78.999L36.946,78.999C40.38,75 45.475,72.076 51.174,72.076ZM34.274,41L67.999,41C68.936,43 69.567,45 69.79,48L32.549,48C32.761,45 33.357,43 34.274,41ZM34.275,57C33.359,55 32.757,53 32.547,51L69.807,51C69.609,53 69,55.216 68,57.143L68,57L34.275,57Z" style="fill:rgb(80,80,80);fill-rule:nonzero;"/>
                            </g>
                        </g>
                    </g>
                </g>
                <g transform="matrix(1.1,0,0,0.959156,-134.776,29.7312)">
                    <path d="M1417.32,540.168C1417.32,502.788 1390.86,472.441 1358.27,472.441L1240.16,472.441C1207.56,472.441 1181.1,502.788 1181.1,540.168L1181.1,897.273C1181.1,934.653 1207.56,965 1240.16,965L1358.27,965C1390.86,965 1417.32,934.653 1417.32,897.273L1417.32,540.168Z" style="fill:rgb(254,255,254);stroke:rgb(80,80,80);stroke-width:8.08px;stroke-linecap:round;stroke-linejoin:round;stroke-miterlimit:1.5;"/>
                </g>
                <g transform="matrix(1.1,0,0,0.959156,-134.776,29.7312)">
                    <path d="M1417.32,540.168C1417.32,502.788 1390.86,472.441 1358.27,472.441L1240.16,472.441C1207.56,472.441 1181.1,502.788 1181.1,540.168L1181.1,897.273C1181.1,934.653 1207.56,965 1240.16,965L1358.27,965C1390.86,965 1417.32,934.653 1417.32,897.273L1417.32,540.168Z" style="fill:rgb(254,255,254);stroke:rgb(80,80,80);stroke-width:8.08px;stroke-linecap:round;stroke-linejoin:round;stroke-miterlimit:1.5;"/>
                </g>
                <g transform="matrix(1,0,0,1,-90.9082,95.9522)">
                    <g transform="matrix(1,0,0,1,37.4198,226.185)">
                        <text x="1228.35px" y="519.685px" style="font-family:'Montserrat-SemiBold', 'Montserrat';font-weight:600;font-size:41.667px;fill:rgb(80,80,80);">Bio<tspan x="1298.35px 1329.56px 1346.85px 1364.01px 1388.89px " y="519.685px 519.685px 519.685px 519.685px 519.685px ">Array</tspan>[||]</text>
                    </g>
                    <g transform="matrix(1,0,0,1,65.0031,4.52461)">
                        <text x="1228.35px" y="519.685px" style="font-family:'Montserrat-SemiBold', 'Montserrat';font-weight:600;font-size:41.667px;fill:rgb(80,80,80);">BioSeq{}</text>
                    </g>
                    <g transform="matrix(1,0,0,1,68.9823,115.355)">
                        <text x="1228.35px" y="519.685px" style="font-family:'Montserrat-SemiBold', 'Montserrat';font-weight:600;font-size:41.667px;fill:rgb(80,80,80);">BioList[]</text>
                    </g>
                </g>
            </g>
            <g transform="matrix(1,0,0,1,6,0)">
                <g transform="matrix(0.5174,0,0,1,737.5,0)">
                    <path d="M1240.16,596.876L1476.38,833.096L1240.16,1069.32" style="fill:none;stroke:rgb(80,80,80);stroke-width:10.47px;stroke-linecap:round;stroke-linejoin:round;stroke-miterlimit:1.5;"/>
                </g>
                <path d="M1501.38,833.096L1702.46,833.096" style="fill:none;stroke:rgb(80,80,80);stroke-width:8.33px;stroke-linecap:round;stroke-linejoin:round;stroke-miterlimit:1.5;"/>
            </g>
            <g transform="matrix(-1,-1.22465e-16,1.22465e-16,-1,2342.62,1666.19)">
                <g transform="matrix(0.5174,0,0,1,737.5,0)">
                    <path d="M1240.16,596.876L1476.38,833.096L1240.16,1069.32" style="fill:none;stroke:rgb(80,80,80);stroke-width:10.47px;stroke-linecap:round;stroke-linejoin:round;stroke-miterlimit:1.5;"/>
                </g>
                <path d="M1501.38,833.096L1702.46,833.096" style="fill:none;stroke:rgb(80,80,80);stroke-width:8.33px;stroke-linecap:round;stroke-linejoin:round;stroke-miterlimit:1.5;"/>
            </g>
            <g transform="matrix(-1,1.22465e-16,-1.22465e-16,-1,2342.62,1666.19)">
                <g transform="matrix(0.5174,0,0,1,737.5,0)">
                    <path d="M1240.16,596.876L1476.38,833.096L1240.16,1069.32" style="fill:none;stroke:rgb(80,80,80);stroke-width:10.47px;stroke-linecap:round;stroke-linejoin:round;stroke-miterlimit:1.5;"/>
                </g>
                <g transform="matrix(0.806094,0,0,0.806094,291.126,161.543)">
                    <path d="M1501.38,833.096L1702.46,833.096" style="fill:none;stroke:rgb(80,80,80);stroke-width:10.34px;stroke-linecap:round;stroke-linejoin:round;stroke-miterlimit:1.5;"/>
                </g>
            </g>
            <g transform="matrix(1,0,0,1,-91.4755,0.09375)">
                <g transform="matrix(0.611362,0,0,0.611362,763.81,86.5578)">
                    <text x="1353.2px" y="1178px" style="font-family:'Montserrat-Medium', 'Montserrat';font-weight:500;font-size:68.154px;fill:rgb(80,80,80);">c<tspan x="1391.57px " y="1178px ">o</tspan>llec<tspan x="1553.98px " y="1178px ">t</tspan>ion</text>
                </g>
                <g transform="matrix(1,0,0,1,1606.08,890.555)">
                    <text x="-14.979px" y="0px" style="font-family:'Montserrat-Medium', 'Montserrat';font-weight:500;font-size:41.667px;fill:rgb(80,80,80);">of</text>
                </g>
            </g>
            <g transform="matrix(0.611362,0,0,0.611362,-172.157,86.6516)">
                <text x="1409.53px" y="1178px" style="font-family:'Montserrat-Medium', 'Montserrat';font-weight:500;font-size:68.154px;fill:rgb(80,80,80);">imple<tspan x="1608.47px " y="1178px ">-</tspan></text>
            </g>
            <g transform="matrix(0.611362,0,0,0.611362,-173.573,170.464)">
                <text x="1410.68px" y="1178px" style="font-family:'Montserrat-Medium', 'Montserrat';font-weight:500;font-size:68.154px;fill:rgb(80,80,80);">m<tspan x="1482.93px " y="1178px ">e</tspan>nts</text>
            </g>
            <g transform="matrix(1,0,0,1,0,-26)">
                <g transform="matrix(1.61223,0,0,0.155191,-920.17,549.557)">
                    <path d="M1417.32,595.581C1417.32,527.618 1412.01,472.441 1405.47,472.441L1192.96,472.441C1186.41,472.441 1181.1,527.618 1181.1,595.581L1181.1,841.86C1181.1,909.823 1186.41,965 1192.96,965L1405.47,965C1412.01,965 1417.32,909.823 1417.32,841.86L1417.32,595.581Z" style="fill:rgb(254,255,254);stroke:rgb(80,80,80);stroke-width:7.28px;stroke-linecap:round;stroke-linejoin:round;stroke-miterlimit:1.5;"/>
                </g>
                <g transform="matrix(1,0,0,1,-183.633,157.349)">
                    <text x="1228.35px" y="519.685px" style="font-family:'Montserrat-SemiBold', 'Montserrat';font-weight:600;font-size:41.667px;fill:rgb(80,80,80);">Nuc<tspan x="1314.47px " y="519.685px ">l</tspan>eotides</text>
                </g>
            </g>
            <g transform="matrix(1,0,0,1,0,34.2926)">
                <g transform="matrix(1.61223,0,0,0.155191,-920.17,885.264)">
                    <path d="M1417.32,595.581C1417.32,527.618 1412.01,472.441 1405.47,472.441L1192.96,472.441C1186.41,472.441 1181.1,527.618 1181.1,595.581L1181.1,841.86C1181.1,909.823 1186.41,965 1192.96,965L1405.47,965C1412.01,965 1417.32,909.823 1417.32,841.86L1417.32,595.581Z" style="fill:rgb(254,255,254);stroke:rgb(80,80,80);stroke-width:7.28px;stroke-linecap:round;stroke-linejoin:round;stroke-miterlimit:1.5;"/>
                </g>
                <g transform="matrix(1,0,0,1,-189.029,493.056)">
                    <text x="1228.35px" y="519.685px" style="font-family:'Montserrat-SemiBold', 'Montserrat';font-weight:600;font-size:41.667px;fill:rgb(80,80,80);">Amin<tspan x="1344.22px " y="519.685px ">o</tspan> A<tspan x="1413.6px " y="519.685px ">c</tspan>ids</text>
                </g>
            </g>
            <g>
                <g transform="matrix(1.61223,0,0,0.155191,-920.17,721.557)">
                    <path d="M1417.32,595.581C1417.32,527.618 1412.01,472.441 1405.47,472.441L1192.96,472.441C1186.41,472.441 1181.1,527.618 1181.1,595.581L1181.1,841.86C1181.1,909.823 1186.41,965 1192.96,965L1405.47,965C1412.01,965 1417.32,909.823 1417.32,841.86L1417.32,595.581Z" style="fill:rgb(254,255,254);stroke:rgb(80,80,80);stroke-width:7.28px;stroke-linecap:round;stroke-linejoin:round;stroke-miterlimit:1.5;"/>
                </g>
                <g transform="matrix(1,0,0,1,-202.383,329.349)">
                    <text x="1228.35px" y="519.685px" style="font-family:'Montserrat-SemiBold', 'Montserrat';font-weight:600;font-size:41.667px;fill:rgb(80,80,80);">Modiﬁcations</text>
                </g>
            </g>
            <g transform="matrix(1,0,0,0.647059,-20.5437,294.034)">
                <g transform="matrix(0.303759,3.35603e-16,-3.07675e-17,0.566667,946.413,358.796)">
                    <path d="M2017.77,847.5L2041.31,867L2005.1,867L1968.88,837L2005.1,807L2041.31,807L2017.77,826.5L2079.48,826.5L2079.48,847.5L2017.77,847.5Z" style="fill:rgb(80,80,80);"/>
                </g>
                <g transform="matrix(0.303759,3.35603e-16,-3.07675e-17,0.566667,1013.6,358.796)">
                    <path d="M2017.77,847.5L2041.31,867L2005.1,867L1968.88,837L2005.1,807L2041.31,807L2017.77,826.5L2079.48,826.5L2079.48,847.5L2017.77,847.5Z" style="fill:rgb(80,80,80);"/>
                </g>
                <g transform="matrix(0.303759,3.35603e-16,-3.07675e-17,0.566667,1080.79,358.796)">
                    <path d="M2017.77,847.5L2041.31,867L2005.1,867L1968.88,837L2005.1,807L2041.31,807L2017.77,826.5L2079.48,826.5L2079.48,847.5L2017.77,847.5Z" style="fill:rgb(80,80,80);"/>
                </g>
            </g>
            <g transform="matrix(1,0,0,0.647059,-920.544,294.034)">
                <g transform="matrix(0.303759,3.35603e-16,-3.07675e-17,0.566667,1013.6,358.796)">
                    <path d="M2017.77,847.5L2041.31,867L2005.1,867L1968.88,837L2005.1,807L2041.31,807L2017.77,826.5L2079.48,826.5L2079.48,847.5L2017.77,847.5Z" style="fill:rgb(80,80,80);"/>
                </g>
                <g transform="matrix(0.303759,3.35603e-16,-3.07675e-17,0.566667,1080.79,358.796)">
                    <path d="M2017.77,847.5L2041.31,867L2005.1,867L1968.88,837L2005.1,807L2041.31,807L2017.77,826.5L2079.48,826.5L2079.48,847.5L2017.77,847.5Z" style="fill:rgb(80,80,80);"/>
                </g>
            </g>
            <g transform="matrix(1,0,0,0.647059,-1177.54,65.751)">
                <g transform="matrix(0.303759,3.35603e-16,-3.07675e-17,0.566667,1085.8,521.41)">
                    <path d="M2017.77,847.5L2041.31,867L2005.1,867L1968.88,837L2005.1,807L2041.31,807L2017.77,826.5L2079.48,826.5L2079.48,847.5L2017.77,847.5Z" style="fill:rgb(80,80,80);"/>
                </g>
                <g transform="matrix(0.303759,3.35603e-16,-3.07675e-17,0.566667,1085.8,774.993)">
                    <path d="M2017.77,847.5L2041.31,867L2005.1,867L1968.88,837L2005.1,807L2041.31,807L2017.77,826.5L2079.48,826.5L2079.48,847.5L2017.77,847.5Z" style="fill:rgb(80,80,80);"/>
                </g>
                <g transform="matrix(0.303759,3.35603e-16,-3.07675e-17,0.566667,1085.8,648.201)">
                    <path d="M2017.77,847.5L2041.31,867L2005.1,867L1968.88,837L2005.1,807L2041.31,807L2017.77,826.5L2079.48,826.5L2079.48,847.5L2017.77,847.5Z" style="fill:rgb(80,80,80);"/>
                </g>
                <g transform="matrix(0.303759,3.35603e-16,-3.07675e-17,0.566667,1085.8,901.785)">
                    <path d="M2017.77,847.5L2041.31,867L2005.1,867L1968.88,837L2005.1,807L2041.31,807L2017.77,826.5L2079.48,826.5L2079.48,847.5L2017.77,847.5Z" style="fill:rgb(80,80,80);"/>
                </g>
            </g>
            <g transform="matrix(6.12323e-17,-1,1,6.12323e-17,-59.1592,1961.76)">
                <g transform="matrix(2,0,0,0.155191,-1469.76,549.557)">
                    <path d="M1417.32,595.581C1417.32,527.618 1413.04,472.441 1407.77,472.441L1190.66,472.441C1185.38,472.441 1181.1,527.618 1181.1,595.581L1181.1,841.86C1181.1,909.823 1185.38,965 1190.66,965L1407.77,965C1413.04,965 1417.32,909.823 1417.32,841.86L1417.32,595.581Z" style="fill:rgb(254,255,254);stroke:rgb(80,80,80);stroke-width:5.87px;stroke-linecap:round;stroke-linejoin:round;stroke-miterlimit:1.5;"/>
                </g>
                <g transform="matrix(1,0,0,1,-191.974,157.349)">
                    <text x="1228.35px" y="519.685px" style="font-family:'Montserrat-SemiBold', 'Montserrat';font-weight:600;font-size:41.667px;fill:rgb(80,80,80);">IBioIt<tspan x="1342.47px " y="519.685px ">e</tspan>m</text>
                </g>
            </g>
            <g transform="matrix(1,0,0,1,-960.604,183.515)">
                <text x="1228.35px" y="519.685px" style="font-family:'Montserrat-SemiBold', 'Montserrat';font-weight:600;font-size:41.667px;fill:rgb(80,80,80);">Ch<tspan x="1287.39px " y="519.685px ">e</tspan>mical</text>
                <text x="1228.35px" y="561.352px" style="font-family:'Montserrat-SemiBold', 'Montserrat';font-weight:600;font-size:41.667px;fill:rgb(80,80,80);">F<tspan x="1254.26px 1281.14px 1298.43px " y="561.352px 561.352px 561.352px ">orm</tspan>ula</text>
                <text x="1228.35px" y="644.685px" style="font-family:'Montserrat-SemiBold', 'Montserrat';font-weight:600;font-size:41.667px;fill:rgb(80,80,80);">Elem<tspan x="1338.31px " y="644.685px ">e</tspan>nts</text>
                <text x="1228.35px" y="728.018px" style="font-family:'Montserrat-SemiBold', 'Montserrat';font-weight:600;font-size:41.667px;fill:rgb(80,80,80);">S<tspan x="1254.14px " y="728.018px ">y</tspan>mbols</text>
                <text x="1228.35px" y="811.352px" style="font-family:'Montserrat-SemiBold', 'Montserrat';font-weight:600;font-size:41.667px;fill:rgb(80,80,80);">Mass</text>
            </g>
        </g>
    </g>
</svg>
