<?xml version="1.0" encoding="UTF-8" standalone="no"?>
<!DOCTYPE svg PUBLIC "-//W3C//DTD SVG 1.1//EN" "http://www.w3.org/Graphics/SVG/1.1/DTD/svg11.dtd">
<svg width="100%" height="100%" viewBox="0 0 1733 465" version="1.1" xmlns="http://www.w3.org/2000/svg" xmlns:xlink="http://www.w3.org/1999/xlink" xml:space="preserve" xmlns:serif="http://www.serif.com/" style="fill-rule:evenodd;clip-rule:evenodd;stroke-linejoin:round;stroke-miterlimit:2;">
    <g transform="matrix(1,0,0,1,-422.554,-104.546)">
        <g transform="matrix(1.59489,0,0,1.59489,-597.955,-2237.29)">
            <g transform="matrix(0.899173,0,0,0.899173,189.424,493.419)">
                <rect x="500.947" y="1084.24" width="1208.03" height="324.179" style="fill:none;"/>
            </g>
            <g opacity="0.22">
                <g transform="matrix(0.984974,0,0,0.71252,21.0863,460.631)">
                    <path d="M1652.79,1517.54C1652.79,1511.54 1649.26,1506.67 1644.93,1506.67L1521.44,1506.67C1517.11,1506.67 1513.59,1511.54 1513.59,1517.54C1513.59,1523.54 1517.11,1528.41 1521.44,1528.41L1644.93,1528.41C1649.26,1528.41 1652.79,1523.54 1652.79,1517.54Z" style="fill:rgb(188,237,229);"/>
                </g>
                <g transform="matrix(0.984974,0,0,0.71252,21.0863,483.355)">
                    <path d="M1652.79,1517.54C1652.79,1511.54 1649.26,1506.67 1644.93,1506.67L1521.44,1506.67C1517.11,1506.67 1513.59,1511.54 1513.59,1517.54C1513.59,1523.54 1517.11,1528.41 1521.44,1528.41L1644.93,1528.41C1649.26,1528.41 1652.79,1523.54 1652.79,1517.54Z" style="fill:rgb(210,243,237);fill-opacity:0.5;"/>
                </g>
                <g transform="matrix(0.984974,0,0,0.71252,21.0863,506.079)">
                    <path d="M1652.79,1517.54C1652.79,1511.54 1649.26,1506.67 1644.93,1506.67L1521.44,1506.67C1517.11,1506.67 1513.59,1511.54 1513.59,1517.54C1513.59,1523.54 1517.11,1528.41 1521.44,1528.41L1644.93,1528.41C1649.26,1528.41 1652.79,1523.54 1652.79,1517.54Z" style="fill:rgb(233,249,246);fill-opacity:0.22;"/>
                </g>
                <g transform="matrix(0.984974,0,0,0.71252,21.0863,578.31)">
                    <path d="M1652.79,1517.54C1652.79,1511.54 1649.26,1506.67 1644.93,1506.67L1521.44,1506.67C1517.11,1506.67 1513.59,1511.54 1513.59,1517.54C1513.59,1523.54 1517.11,1528.41 1521.44,1528.41L1644.93,1528.41C1649.26,1528.41 1652.79,1523.54 1652.79,1517.54Z" style="fill:rgb(210,243,237);fill-opacity:0.5;"/>
                </g>
                <g transform="matrix(0.984974,0,0,0.71252,21.0863,553.556)">
                    <path d="M1652.79,1517.54C1652.79,1511.54 1649.26,1506.67 1644.93,1506.67L1521.44,1506.67C1517.11,1506.67 1513.59,1511.54 1513.59,1517.54C1513.59,1523.54 1517.11,1528.41 1521.44,1528.41L1644.93,1528.41C1649.26,1528.41 1652.79,1523.54 1652.79,1517.54Z" style="fill:rgb(188,237,229);"/>
                </g>
                <g transform="matrix(0.984974,0,0,0.71252,21.0863,603.064)">
                    <path d="M1652.79,1517.54C1652.79,1511.54 1649.26,1506.67 1644.93,1506.67L1521.44,1506.67C1517.11,1506.67 1513.59,1511.54 1513.59,1517.54C1513.59,1523.54 1517.11,1528.41 1521.44,1528.41L1644.93,1528.41C1649.26,1528.41 1652.79,1523.54 1652.79,1517.54Z" style="fill:rgb(233,249,246);fill-opacity:0.22;"/>
                </g>
            </g>
            <g transform="matrix(0.428774,0,0,0.427961,697.058,1716.3)">
                <text x="0px" y="0px" style="font-family:'Gulim', sans-serif;font-size:667px;fill:rgb(143,225,211);">S</text>
                <text x="422.086px" y="0px" style="font-family:'Gulim', sans-serif;font-size:667px;fill:rgb(45,62,80);">WAT</text>
                <text x="1837.51px" y="0px" style="font-family:'Gulim', sans-serif;font-size:667px;fill:rgb(143,225,211);">E</text>
            </g>
        </g>
    </g>
</svg>
